<svg width="1746" height="209" viewBox="0 0 1746 209" fill="none" xmlns="http://www.w3.org/2000/svg">
<g clip-path="url(#clip0_1025_2)">
<path d="M409.4 104.86C409.4 162.17 362.94 208.64 305.62 208.64C248.3 208.64 201.84 162.18 201.84 104.86C201.84 47.5401 248.3 1.08008 305.62 1.08008C362.94 1.08008 409.4 47.5401 409.4 104.86Z" fill="url(#paint0_linear_1025_2)"/>
<path d="M345.06 66.3801C334.77 66.3801 325.15 70.3401 318.09 77.4601L305.63 89.4001L293.43 77.6601C286.18 70.4101 276.55 66.3801 266.26 66.3801C255.97 66.3801 246.35 70.4001 239.09 77.6601C231.84 84.9101 227.81 94.5401 227.81 104.83C227.81 115.12 231.77 124.74 239.09 132C246.34 139.25 255.97 143.28 266.26 143.28C276.55 143.28 286.17 139.32 293.23 132.2L305.63 120.33L317.83 132.07C325.08 139.32 334.71 143.35 345 143.35C355.29 143.35 364.91 139.39 372.17 132.07C379.42 124.82 383.45 115.19 383.45 104.9C383.45 94.6101 379.49 84.9901 372.17 77.7301C364.92 70.4101 355.29 66.3901 345.07 66.3901H345.06V66.3801ZM277.67 116.23C271.54 122.36 260.92 122.36 254.79 116.23C251.76 113.2 250.04 109.11 250.04 104.82C250.04 100.53 251.75 96.4501 254.79 93.3501C257.82 90.3201 261.91 88.6001 266.2 88.6001C270.49 88.6001 274.57 90.3101 277.81 93.4801L289.55 104.76L277.68 116.23H277.67ZM356.47 116.23C350.34 122.36 339.85 122.49 333.46 116.1L321.72 104.82L333.66 93.4101C339.79 87.2801 350.41 87.2801 356.54 93.4101C359.57 96.5101 361.29 100.53 361.29 104.88C361.22 109.1 359.51 113.19 356.48 116.22H356.47V116.23Z" fill="white"/>
<path d="M0 3.46997H42.05L139.39 137.1V3.46997H179.42V205.07H139.39L40.32 68.55V205.06H0V3.46997Z" fill="white"/>
<path d="M432.29 3.46997H497.09C517.44 3.46997 535.58 7.73997 551.52 16.29C567.45 24.84 579.93 36.79 588.96 52.15C597.98 67.51 602.5 84.89 602.5 104.28C602.5 123.67 597.99 141.05 588.96 156.41C579.93 171.77 567.45 183.73 551.52 192.27C535.58 200.81 517.44 205.09 497.09 205.09H432.29V3.46997ZM497.09 167.34C509.19 167.34 520.13 164.6 529.92 159.13C539.71 153.66 547.39 146.13 552.96 136.52C558.53 126.92 561.31 116.17 561.31 104.26C561.31 92.35 558.52 81.61 552.96 72C547.39 62.4 539.71 54.86 529.92 49.39C520.13 43.92 509.18 41.18 497.09 41.18H472.61V167.32H497.09V167.34Z" fill="white"/>
<path d="M625.53 3.46997H753.4V40.33H665.85V84.97H741.31V120.97H665.85V168.2H754.84V205.06H625.53V3.46997Z" fill="white"/>
<path d="M817.77 202.04C806.54 197.72 797.27 191.96 789.98 184.76C782.68 177.56 778.07 169.74 776.16 161.29L815.9 149.77C818.39 156.68 822.81 162.35 829.15 166.76C835.49 171.18 843.16 173.48 852.19 173.67C862.17 173.67 870.29 171.46 876.53 167.05C882.77 162.63 885.89 156.78 885.89 149.48C885.89 143.53 883.49 138.35 878.69 133.93C873.89 129.52 867.07 126.25 858.24 124.14L831.74 117.52C816.38 113.49 804.24 106.68 795.31 97.07C786.38 87.47 781.92 75.38 781.92 60.78C781.92 41.58 788.26 26.65 800.93 16C813.6 5.34002 831.46 0.0200195 854.5 0.0200195C873.12 0.0200195 888.63 4.05002 901.01 12.12C913.39 20.18 922.37 31.52 927.94 46.1L888.48 58.2C886.18 51.48 881.95 45.91 875.81 41.5C869.66 37.09 862.18 34.88 853.35 34.88C843.94 34.88 836.55 37.14 831.17 41.65C825.79 46.16 823.11 52.26 823.11 59.94C823.11 71.08 831.07 78.66 847.01 82.69L873.51 89.31C890.4 93.54 903.7 101.07 913.4 111.92C923.09 122.77 927.94 135.01 927.94 148.64C927.94 167.07 921.46 181.67 908.5 192.42C895.54 203.17 877.44 208.55 854.21 208.55C841.15 208.55 829.01 206.39 817.78 202.07V202.04H817.77Z" fill="white"/>
<path d="M1003.96 40.33H943.48V3.46997H1104.18V40.33H1043.99V205.07H1003.96V40.33Z" fill="white"/>
<path d="M1121.17 3.46997H1196.63C1210.64 3.46997 1223.17 6.20997 1234.21 11.68C1245.25 17.15 1253.89 24.83 1260.13 34.72C1266.37 44.61 1269.49 55.89 1269.49 68.56C1269.49 81.23 1266.08 93.52 1259.27 103.7C1252.45 113.88 1243 121.66 1230.9 127.03L1277.56 205.08H1231.77L1191.16 134.23H1161.5V205.08H1121.18V3.46997H1121.17ZM1196.63 97.36C1205.46 97.36 1212.85 94.67 1218.81 89.3C1224.76 83.93 1227.74 77.01 1227.74 68.56C1227.74 60.11 1224.67 53.25 1218.52 47.97C1212.37 42.69 1204.5 40.05 1194.9 40.05H1161.49V97.36H1196.63Z" fill="white"/>
<path d="M1298.58 3.46997H1338.9V205.07H1298.58V3.46997Z" fill="white"/>
<path d="M1410.32 195.27C1394.96 186.44 1383.01 174.1 1374.46 158.26C1365.91 142.42 1361.64 124.42 1361.64 104.26C1361.64 84.1 1365.91 66.1 1374.46 50.26C1383 34.42 1394.95 22.09 1410.32 13.25C1425.68 4.42 1443.05 0 1462.45 0C1482.99 0 1501.37 5.33 1517.6 15.98C1533.82 26.64 1545.68 40.7 1553.17 58.17L1515.73 71.99C1510.73 61.24 1503.53 52.69 1494.13 46.36C1484.72 40.02 1474.16 36.86 1462.45 36.86C1450.74 36.86 1440.66 39.74 1431.63 45.5C1422.6 51.26 1415.55 59.23 1410.46 69.4C1405.37 79.58 1402.83 91.19 1402.83 104.25C1402.83 117.31 1405.42 128.97 1410.61 139.24C1415.79 149.51 1422.94 157.53 1432.07 163.29C1441.19 169.05 1451.6 171.93 1463.32 171.93C1475.04 171.93 1485.73 168.62 1494.86 161.99C1503.98 155.37 1511.13 146.39 1516.32 135.06L1553.76 148.6C1546.46 166.65 1534.65 181.14 1518.34 192.09C1502.02 203.03 1483.49 208.51 1462.76 208.51C1443.18 208.51 1425.7 204.1 1410.34 195.26H1410.32V195.27Z" fill="white"/>
<path d="M1706.09 120.39H1613.93V205.06H1573.61V3.17993H1613.93V83.5299H1706.09V3.46993H1746.41V205.07H1706.09V120.4V120.39Z" fill="white"/>
</g>
<defs>
<linearGradient id="paint0_linear_1025_2" x1="305.62" y1="208.64" x2="305.62" y2="1.08008" gradientUnits="userSpaceOnUse">
<stop stop-color="#660066"/>
<stop offset="1" stop-color="#FF66FF"/>
</linearGradient>
<clipPath id="clip0_1025_2">
<rect width="1746" height="209" fill="white"/>
</clipPath>
</defs>
</svg>
